<svg viewBox="0 0 200 200" xmlns="http://www.w3.org/2000/svg" role="img" aria-label="biriyani">
  <defs>
    <radialGradient id="g-biriyani" cx="35%" cy="30%" r="75%">
      <stop offset="0%" stop-color="#3A6B33"/>
      <stop offset="100%" stop-color="#12321E"/>
    </radialGradient>
  </defs>
  <circle cx="100" cy="100" r="96" fill="#3E2712"/>
  <circle cx="100" cy="100" r="88" fill="url(#g-biriyani)"/>
  <circle cx="100" cy="100" r="88" fill="none" stroke="#6B4226" stroke-width="4" opacity=".7"/>
  <circle cx="100" cy="100" r="94" fill="none" stroke="#F2B705" stroke-width="2" opacity=".55" stroke-dasharray="2 5"/>
  
    <path d="M62 140 L62 96 Q62 78 100 78 Q138 78 138 96 L138 140 Z" fill="#3E2712"/>
    <path d="M66 140 L66 98 Q66 84 100 84 Q134 84 134 98 L134 140 Z" fill="#6B4226"/>
    <ellipse cx="100" cy="98" rx="34" ry="14" fill="#F2B705"/>
    <ellipse cx="100" cy="96" rx="30" ry="11" fill="#E8C97A"/>
    <circle cx="88" cy="94" r="2.4" fill="#C8462B"/>
    <circle cx="108" cy="92" r="2.4" fill="#C8462B"/>
    <circle cx="98" cy="100" r="2.4" fill="#3D8361"/>
    <rect x="60" y="70" width="80" height="10" rx="5" fill="#3E2712"/>
    
  
        <path d="M78 34 C 72 26, 84 22, 78 12" stroke="#F4EFE0" stroke-width="4" stroke-linecap="round" fill="none" opacity=".55"/>
        <path d="M100 30 C 94 22, 106 18, 100 8" stroke="#F4EFE0" stroke-width="4" stroke-linecap="round" fill="none" opacity=".7"/>
        <path d="M122 34 C 116 26, 128 22, 122 12" stroke="#F4EFE0" stroke-width="4" stroke-linecap="round" fill="none" opacity=".55"/>
        
</svg>