<svg viewBox="0 0 200 200" xmlns="http://www.w3.org/2000/svg" role="img" aria-label="juice">
  <defs>
    <radialGradient id="g-juice" cx="35%" cy="30%" r="75%">
      <stop offset="0%" stop-color="#B8860B"/>
      <stop offset="100%" stop-color="#4A3403"/>
    </radialGradient>
  </defs>
  <circle cx="100" cy="100" r="96" fill="#3E2712"/>
  <circle cx="100" cy="100" r="88" fill="url(#g-juice)"/>
  <circle cx="100" cy="100" r="88" fill="none" stroke="#6B4226" stroke-width="4" opacity=".7"/>
  <circle cx="100" cy="100" r="94" fill="none" stroke="#F2B705" stroke-width="2" opacity=".55" stroke-dasharray="2 5"/>
  
    <path d="M78 66 L122 66 L114 138 Q100 146 86 138 Z" fill="#F2B705"/>
    <path d="M78 66 L122 66 L119 78 L81 78 Z" fill="#E8C97A"/>
    <circle cx="100" cy="56" r="16" fill="#C8462B" opacity=".9"/>
    <path d="M100 46 L100 66 M91 51 L109 61 M109 51 L91 61" stroke="#F4EFE0" stroke-width="2" opacity=".8"/>
    <path d="M124 40 L112 84" stroke="#F4EFE0" stroke-width="5" stroke-linecap="round"/>
    
  
        <circle cx="70" cy="86" r="2.4" fill="#F4EFE0" opacity=".6"/>
        <circle cx="132" cy="100" r="2" fill="#F4EFE0" opacity=".5"/>
        <circle cx="76" cy="112" r="1.6" fill="#F4EFE0" opacity=".5"/>
        
</svg>