<svg viewBox="0 0 200 200" xmlns="http://www.w3.org/2000/svg" role="img" aria-label="mandi">
  <defs>
    <radialGradient id="g-mandi" cx="35%" cy="30%" r="75%">
      <stop offset="0%" stop-color="#2E6B3E"/>
      <stop offset="100%" stop-color="#123822"/>
    </radialGradient>
  </defs>
  <circle cx="100" cy="100" r="96" fill="#3E2712"/>
  <circle cx="100" cy="100" r="88" fill="url(#g-mandi)"/>
  <circle cx="100" cy="100" r="88" fill="none" stroke="#6B4226" stroke-width="4" opacity=".7"/>
  <circle cx="100" cy="100" r="94" fill="none" stroke="#F2B705" stroke-width="2" opacity=".55" stroke-dasharray="2 5"/>
  
    <ellipse cx="100" cy="132" rx="52" ry="16" fill="#6B4226"/>
    <path d="M52 128 Q100 150 148 128 L142 108 Q100 122 58 108 Z" fill="#3E2712"/>
    <path d="M58 112 Q100 96 142 112 Q136 72 100 66 Q64 72 58 112 Z" fill="#E8C97A"/>
    <path d="M64 108 Q100 96 136 108 Q131 78 100 74 Q69 78 64 108 Z" fill="#F2B705"/>
    <ellipse cx="100" cy="80" rx="17" ry="10" fill="#C8462B"/>
    <path d="M84 78 q16 -14 32 0" stroke="#3E2712" stroke-width="3" fill="none" stroke-linecap="round"/>
    <circle cx="70" cy="98" r="3" fill="#3D8361"/>
    <circle cx="128" cy="100" r="3" fill="#3D8361"/>
    
  
        <path d="M78 34 C 72 26, 84 22, 78 12" stroke="#F4EFE0" stroke-width="4" stroke-linecap="round" fill="none" opacity=".55"/>
        <path d="M100 30 C 94 22, 106 18, 100 8" stroke="#F4EFE0" stroke-width="4" stroke-linecap="round" fill="none" opacity=".7"/>
        <path d="M122 34 C 116 26, 128 22, 122 12" stroke="#F4EFE0" stroke-width="4" stroke-linecap="round" fill="none" opacity=".55"/>
        
</svg>