<svg viewBox="0 0 200 200" xmlns="http://www.w3.org/2000/svg" role="img" aria-label="noodles">
  <defs>
    <radialGradient id="g-noodles" cx="35%" cy="30%" r="75%">
      <stop offset="0%" stop-color="#375E2C"/>
      <stop offset="100%" stop-color="#152C1B"/>
    </radialGradient>
  </defs>
  <circle cx="100" cy="100" r="96" fill="#3E2712"/>
  <circle cx="100" cy="100" r="88" fill="url(#g-noodles)"/>
  <circle cx="100" cy="100" r="88" fill="none" stroke="#6B4226" stroke-width="4" opacity=".7"/>
  <circle cx="100" cy="100" r="94" fill="none" stroke="#F2B705" stroke-width="2" opacity=".55" stroke-dasharray="2 5"/>
  
    <path d="M56 104 Q100 126 144 104 L138 128 Q100 146 62 128 Z" fill="#3E2712"/>
    <ellipse cx="100" cy="100" rx="46" ry="16" fill="#F2B705"/>
    <path d="M66 98 q34 20 68 0" stroke="#E8C97A" stroke-width="4" fill="none" stroke-linecap="round"/>
    <path d="M70 92 q30 16 60 0" stroke="#F4EFE0" stroke-width="3" fill="none" stroke-linecap="round" opacity=".8"/>
    <rect x="118" y="46" width="6" height="60" rx="3" fill="#6B4226" transform="rotate(18 118 46)"/>
    <rect x="130" y="46" width="6" height="60" rx="3" fill="#6B4226" transform="rotate(10 130 46)"/>
    
  
        <path d="M78 34 C 72 26, 84 22, 78 12" stroke="#F4EFE0" stroke-width="4" stroke-linecap="round" fill="none" opacity=".55"/>
        <path d="M100 30 C 94 22, 106 18, 100 8" stroke="#F4EFE0" stroke-width="4" stroke-linecap="round" fill="none" opacity=".7"/>
        <path d="M122 34 C 116 26, 128 22, 122 12" stroke="#F4EFE0" stroke-width="4" stroke-linecap="round" fill="none" opacity=".55"/>
        
</svg>